<?xml version="1.0" encoding="UTF-8" standalone="no"?>
<!DOCTYPE svg PUBLIC "-//W3C//DTD SVG 1.1//EN" "http://www.w3.org/Graphics/SVG/1.1/DTD/svg11.dtd">
<svg width="100%" height="100%" viewBox="0 0 750 650" version="1.1" xmlns="http://www.w3.org/2000/svg" xmlns:xlink="http://www.w3.org/1999/xlink" xml:space="preserve" xmlns:serif="http://www.serif.com/" style="fill-rule:evenodd;clip-rule:evenodd;stroke-linejoin:round;stroke-miterlimit:2;">
    <g transform="matrix(1,0,0,1,-425,0)">
        <g id="vaulthunters_logo_color" transform="matrix(0.375,0,0,0.325,425,0)">
            <rect x="0" y="0" width="2000" height="2000" style="fill:none;"/>
            <g transform="matrix(2.666667,0,0,3.076838,-1666.666667,-2076.864146)">
                <g transform="matrix(1,0,0,1,500.001683,457.315976)">
                    <path d="M198.359,847.142L151.475,788.537L167.691,525.774L193.011,525.774C189.598,438.907 186.544,349.696 184.01,262.926L183.289,238.226L814.565,238.226L819.755,322.341L791.046,407.508L797.521,525.774L832.299,525.774L848.521,788.541L801.641,847.142L787.349,844.319C787.349,844.319 643.675,815.935 500,815.935C356.325,815.935 212.651,844.319 212.651,844.319L198.359,847.142Z" style="fill:rgb(47,11,4);"/>
                </g>
                <g transform="matrix(1,0,0,1,500.001683,457.315976)">
                    <path d="M176,780.774L190.255,549.774L224.2,549.774L235.451,576.739L235.84,569.647L217.03,525.774C213.605,438.69 210.54,349.23 208,262.226L255.918,262.226L269.003,312.808L273.887,262.226L321.805,262.226L331.94,314.75L332.943,286.185C332.995,284.699 333.291,276.271 340.566,269.243C347.83,262.226 356.259,262.226 357.744,262.226L423.631,262.226C433.545,262.226 439.457,268.205 440.484,269.243C441.399,270.168 446.19,275.012 447.156,283.055C447.275,284.049 447.336,285.093 447.324,286.185C447.324,286.185 452.442,372.237 452.51,373.895C452.525,374.268 452.531,374.647 452.527,375.033L450.553,553.254C451.224,553.782 451.891,554.39 452.54,555.091C453.222,555.827 456.781,559.672 457.322,566.072C457.339,566.27 457.353,566.471 457.364,566.674C457.795,572.95 461.451,626.284 461.534,627.241C461.581,627.786 461.604,628.351 461.599,628.936L459.986,792.452C443.986,792.886 430.545,793.541 427.986,793.666L420.095,750.695L421.905,647.631L418.979,647.66L415.987,794.3C399.987,795.21 386.546,796.266 383.988,796.467L373.13,760.03L372.501,780.612C372.289,787.575 368.171,792.135 367.458,792.925C362.617,798.286 357.02,798.831 355.989,798.932C333.991,801.077 315.505,803.43 311.992,803.877C311.065,803.995 305.338,804.724 300.912,800.197C300.596,799.873 299.663,798.919 298.764,797.297C298.546,796.904 291.806,783.932 285.725,772.19L283.993,807.707C267.995,810.046 254.551,812.303 251.996,812.732L240.987,797.173L239.997,814.796C223.999,817.612 210.555,820.269 208,820.774L176,780.774ZM327.333,445.899C322.743,480.527 318.063,515.272 313.34,549.774L317.548,549.774L328.724,589.96L328.769,589.96L330.277,549.774L330.908,549.774L324.527,525.774L327.333,445.899ZM397.935,549.774L392.802,517.79L389.192,521.194L388.478,549.774L397.935,549.774ZM463.937,504.322C463.806,503.097 463.812,502.208 463.815,501.815L465.559,262.226L513.477,262.226L514.083,474.862L529.147,474.862L528.34,353.44L531.446,262.226L579.364,262.226L583.383,501.815C583.394,502.499 583.431,504.693 582.736,507.55C581.661,516.709 579.452,535.089 577.682,549.774L591.759,549.774L587.72,353.44L597.333,262.226L645.251,262.226L651.779,474.862L695.703,474.862L692.574,404.723L662.527,404.723L660.595,353.44L678.195,262.226L792,262.226L795.511,319.128L766.83,404.213L773.485,525.774L763.54,549.774L809.745,549.774L815.09,635.748L806.012,652.46C806.012,652.46 808.488,653.684 811.363,657.149C812.203,658.161 816.82,663.727 817.358,672.455L824,780.774L792,820.774C761.998,814.842 736.811,810.885 731.995,810.129C730.926,809.961 725.374,809.088 720.422,803.143C719.689,802.264 715.487,797.218 715.13,789.849L714.891,784.923C709.394,795.415 703.993,805.995 703.993,805.995C687.992,803.785 674.554,802.22 671.991,801.922L670.923,775.48L659.99,800.573C643.989,798.84 630.551,797.675 627.988,797.453L626.85,760.004L615.988,796.462C583.988,793.949 557.111,793.004 551.986,792.823L549.712,612.589L551.588,590.96L547.114,590.96L547.134,592.88L542.479,651.438L523.877,651.351L524.395,748.927L521.986,792.072C505.986,791.835 492.546,791.926 489.986,791.943L488.888,748.784L489.135,651.316L469.101,651.376L465.715,592.812L466.055,549.774L466.316,549.774C465.442,533.193 464.306,511.592 463.937,504.322ZM626.986,590.96L623.764,590.96L613.789,639.706C617.825,639.83 621.07,639.935 623.202,640.006L622.368,612.589L626.986,590.96ZM625.457,714.181L624.652,687.706L618.323,713.755C621.335,713.93 623.771,714.077 625.457,714.181Z" style="fill:rgb(140,43,11);"/>
                </g>
                <g transform="matrix(1,0,0,1,500.001683,457.315976)">
                    <path d="M340.207,756.538C315.798,758.918 295.287,761.529 291.388,762.026C290.36,762.156 284.005,762.965 279.094,757.942C278.314,757.144 274.166,752.9 274.542,744.758C277.562,679.764 280.583,614.769 283.603,549.774C294.918,549.774 306.233,549.774 317.548,549.774C315.286,606.225 313.025,662.675 310.764,719.125L323.966,717.938C326.069,661.884 328.173,605.829 330.277,549.774C341.592,549.774 352.907,549.774 364.221,549.774C362.324,611.92 360.426,674.065 358.529,736.211C358.294,743.937 353.725,748.996 352.933,749.873C347.562,755.821 341.351,756.427 340.207,756.538ZM371.274,753.803C373.166,685.794 375.059,617.784 376.951,549.774C398.166,549.774 419.381,549.774 440.597,549.774C441.643,549.774 447.617,549.774 452.54,555.091C453.285,555.895 457.464,560.41 457.39,567.913C456.794,628.391 456.197,688.87 455.601,749.348C437.848,749.829 422.934,750.557 420.095,750.695C421.044,696.651 421.993,642.607 422.943,588.562L410.1,588.689C408.993,642.925 407.887,697.162 406.78,751.399C389.027,752.409 374.112,753.58 371.274,753.803ZM734.874,667.484C733.277,634.766 731.681,602.048 730.084,569.331C729.689,561.251 733.651,556.414 734.384,555.519C739.089,549.774 745.055,549.774 746.099,549.774C767.314,549.774 788.529,549.774 809.745,549.774C811.527,578.432 813.308,607.09 815.09,635.748C797.825,634.503 783.322,633.571 780.559,633.394C779.79,619.854 779.02,606.315 778.251,592.775L765.409,592.364C766.417,610.808 767.426,629.253 768.434,647.697C770.86,647.873 783.589,648.798 798.743,650.022C799.899,650.116 805.933,650.603 811.363,657.149C812.203,658.161 816.82,663.727 817.358,672.455C819.572,708.561 821.786,744.668 824,780.774C790.71,774.192 762.763,769.801 757.419,768.962C756.233,768.776 750.072,767.808 744.578,761.211C743.765,760.235 739.102,754.637 738.706,746.46C738.107,734.097 737.508,721.735 736.909,709.372C754.459,711.246 769.204,713.053 772.009,713.397L772.835,728.631L786.038,730.448C785.317,717.644 784.596,704.841 783.875,692.038C768.589,690.353 755.749,689.09 753.302,688.849C752.153,688.736 746.075,688.138 740.662,681.868C739.852,680.929 735.27,675.622 734.874,667.484ZM642.015,754.897C639.936,686.523 637.857,618.149 635.779,549.774C656.994,549.774 678.209,549.774 699.425,549.774C700.505,549.774 706.465,549.774 711.685,555.436C712.49,556.309 716.926,561.122 717.302,569.172C718.521,595.389 719.74,621.606 720.959,647.823C721.147,651.868 719.115,654.13 718.736,654.552L708.772,665.561C709.659,666.558 714.35,671.831 719.816,678.074C720.221,678.536 722.503,681.138 722.691,685.19C723.91,711.585 725.129,737.98 726.348,764.376C708.594,761.923 693.683,760.187 690.839,759.856C689.822,734.316 688.806,708.777 687.789,683.238C681.669,689.754 676.227,695.494 675.218,696.557C675.987,717.158 676.755,737.758 677.523,758.359C659.769,756.436 644.858,755.144 642.015,754.897ZM684.072,590.209L671.23,589.94C672.053,611.916 672.875,633.892 673.698,655.868C680.062,648.816 685.151,643.117 686.144,642.005C685.453,624.74 684.763,607.474 684.072,590.209ZM215.254,707.389C214.004,729.639 212.754,751.89 211.504,774.141C193.752,777.265 178.835,780.214 176,780.774C180.752,703.774 185.503,626.774 190.255,549.774C201.57,549.774 212.885,549.774 224.2,549.774C222.036,587.835 219.871,625.895 217.707,663.955C218.808,662.648 224.56,655.821 231.561,647.699C233.35,615.058 235.14,582.416 236.929,549.774C248.244,549.774 259.559,549.774 270.874,549.774C267.356,621.941 263.839,694.108 260.322,766.274C242.57,768.871 227.653,771.375 224.817,771.851C226.285,744.777 227.753,717.703 229.221,690.629C228.096,691.963 222.168,698.993 215.254,707.389ZM489.283,592.742C481.427,592.765 473.571,592.788 465.715,592.812C465.828,578.466 465.942,564.12 466.055,549.774C492.928,549.774 519.801,549.774 546.674,549.774C546.827,564.143 546.981,578.512 547.134,592.88C539.278,592.844 531.422,592.807 523.565,592.771C523.842,644.823 524.119,696.875 524.395,748.927C506.642,748.663 491.729,748.764 488.888,748.784C489.02,696.77 489.152,644.756 489.283,592.742ZM557.683,749.76C556.842,683.098 556.001,616.436 555.16,549.774C577.79,549.774 600.42,549.774 623.049,549.774C623.413,562.89 623.777,576.005 624.141,589.12C612.725,588.976 601.31,588.832 589.894,588.688C590.235,605.483 590.575,622.277 590.916,639.072C608.235,639.497 622.782,639.991 625.553,640.085C625.917,653.225 626.281,666.365 626.644,679.505C609.175,678.646 594.501,678.124 591.705,678.024C591.937,689.486 592.169,700.947 592.401,712.409C610.005,713.209 624.792,714.138 627.607,714.315C627.971,727.476 628.335,740.637 628.699,753.798C593.192,751.01 563.37,749.96 557.683,749.76ZM377.049,448.363C376.404,474.167 375.759,499.971 375.114,525.774L324.527,525.774C327.332,445.911 330.138,366.048 332.943,286.185C332.995,284.699 333.291,276.271 340.566,269.243C347.83,262.226 356.259,262.226 357.744,262.226L423.631,262.226C433.545,262.226 439.457,268.205 440.484,269.243C441.512,270.282 447.434,276.271 447.324,286.185C446.44,366.048 445.555,445.911 444.671,525.774L394.084,525.774C394.758,493.981 395.432,462.187 396.106,430.394C389.754,436.383 383.401,442.373 377.049,448.363ZM397.203,378.684C397.666,356.836 398.129,334.987 398.592,313.138L380.43,313.138C379.734,340.977 379.038,368.815 378.342,396.653C384.629,390.664 390.916,384.674 397.203,378.684ZM558.491,525.774L488.934,525.774C478.447,525.774 472.2,519.816 471.09,518.757C463.743,511.749 463.804,503.29 463.815,501.815C464.396,421.952 464.978,342.089 465.559,262.226L513.477,262.226C513.679,333.104 513.881,403.983 514.083,474.862L532.859,474.862C532.388,403.983 531.917,333.104 531.446,262.226L579.364,262.226C580.704,342.089 582.043,421.952 583.383,501.815C583.407,503.285 583.549,511.749 576.269,518.757C575.167,519.817 568.978,525.774 558.491,525.774ZM286.587,525.774L217.03,525.774C213.605,438.69 210.54,349.23 208,262.226L255.918,262.226C255.738,326.116 255.559,390.007 255.379,453.897C261.548,390.007 267.718,326.116 273.887,262.226L321.805,262.226C310.634,349.116 298.681,438.577 286.587,525.774ZM713.678,319.128L680.338,319.128C679.623,300.161 678.909,281.193 678.195,262.226L792,262.226C793.17,281.193 794.341,300.161 795.511,319.128L762.172,319.128C765.943,388.01 769.714,456.892 773.485,525.774L722.898,525.774C719.825,456.892 716.751,388.01 713.678,319.128ZM602.755,525.774C600.948,437.925 599.14,350.075 597.333,262.226C613.306,262.226 629.279,262.226 645.251,262.226C647.427,333.104 649.603,403.983 651.779,474.862L701.85,474.862C702.543,491.832 703.236,508.803 703.928,525.774C670.204,525.774 636.479,525.774 602.755,525.774Z" style="fill:url(#_Linear1);"/>
                </g>
                <path d="M1056.371,1102.941L1055.162,1007.09L1123.051,1007.09L1124.142,1046.436L1089.896,1046.004L1090.836,1092.377L1056.371,1102.941ZM1137.934,1077.942L1135.78,1007.09L1199.426,1007.09C1200.507,1007.09 1206.467,1007.09 1211.687,1012.752C1212.491,1013.625 1216.928,1018.438 1217.303,1026.488L1218.547,1053.235L1184.717,1063.603L1184.074,1047.525L1171.232,1047.256L1171.99,1067.504L1137.934,1077.942ZM1231.194,1049.358L1230.086,1026.647C1229.69,1018.567 1233.652,1013.73 1234.386,1012.834C1239.091,1007.09 1245.057,1007.09 1246.1,1007.09L1309.747,1007.09L1310.856,1024.942L1231.194,1049.358ZM1128.363,1198.9L1128.701,1211.114C1119.139,1210.363 1109.989,1209.738 1101.612,1209.222L1128.363,1198.9ZM1176.211,1180.437L1177.525,1215.675C1159.771,1213.752 1144.86,1212.46 1142.016,1212.213L1141.458,1193.847L1176.211,1180.437ZM1223.6,1162.151L1226.35,1221.691C1208.595,1219.239 1193.685,1217.503 1190.841,1217.172L1189.179,1175.433L1223.6,1162.151ZM1316.887,1126.154C1317.116,1127.289 1317.281,1128.496 1317.36,1129.771L1324.002,1238.09C1290.712,1231.508 1262.765,1227.117 1257.42,1226.278C1256.235,1226.092 1250.074,1225.124 1244.579,1218.527C1243.766,1217.551 1239.103,1211.953 1238.708,1203.776L1236.911,1166.688C1254.461,1168.562 1269.206,1170.369 1272.011,1170.713L1272.837,1185.947L1286.04,1187.764L1283.877,1149.354C1275.674,1148.45 1268.175,1147.667 1262.609,1147.098L1316.887,1126.154ZM964.28,895.494L965.551,720.923L966.764,719.542L1013.479,719.542L1013.864,854.776L964.28,895.494ZM781.828,1045.321L783.605,1007.09L817.549,1007.09L817.181,1016.289L781.828,1045.321ZM732.62,1085.73L736.931,1007.09L770.875,1007.09L768.478,1056.284L732.62,1085.73ZM714.147,1007.09L724.201,1007.09L719.098,1096.833L682.884,1126.572L688.452,1036.338L714.147,1007.09ZM1178.546,719.542L1178.207,719.82L1178.197,719.542L1178.546,719.542ZM1098.684,785.123L1097.335,719.542L1145.253,719.542L1146.072,746.209L1098.684,785.123ZM1032.246,839.681L1031.448,719.542L1079.366,719.542L1080.713,799.88L1032.246,839.681ZM857.609,983.09L824.528,983.09L828.248,877.212L879.213,819.199L878.343,853.969L897.204,836L898.014,797.798L947.281,741.719C947.317,742.298 947.333,742.892 947.326,743.501L945.471,910.939L894.732,952.606L896.108,887.71L877.051,905.679L875.482,968.413L857.609,983.09ZM796.104,913.8C792.95,936.995 789.774,960.121 786.588,983.09L735.231,983.09L796.104,913.8ZM764.488,1138.149L761.803,1193.224L726.176,1204.143L728.73,1157.043L764.488,1138.149ZM716.047,1163.744L715.256,1164.705L712.81,1208.24L677.17,1219.164L679.394,1183.111L716.047,1163.744ZM813.334,1112.339L810.766,1176.441L818.966,1175.704L775.145,1189.135L777.842,1131.093L813.334,1112.339ZM824.008,1174.158L826.591,1105.334L861.791,1086.734L859.454,1163.295L824.008,1174.158ZM957.283,1036.277L956.323,1133.605L921.214,1144.365L922.793,1054.502L957.283,1036.277ZM909.788,1061.373L908.012,1148.412L872.72,1159.229L874.93,1079.792L909.788,1061.373ZM1012.521,1007.09L1046.676,1007.09L1047.136,1050.196L1023.567,1050.087L1023.901,1112.893L989.099,1123.559L989.285,1050.058L965.716,1050.128L965.862,1031.744L1012.521,1007.09ZM1267.427,872.4L1273.487,983.09L1222.9,983.09L1219.1,897.935L1267.427,872.4ZM1154.296,932.178L1201.852,932.178L1203.93,983.09L1102.756,983.09L1102.274,959.665L1154.296,932.178ZM1080.018,971.425C1079.063,972.986 1077.839,974.563 1076.271,976.073C1075.169,977.133 1068.98,983.09 1058.493,983.09L1057.941,983.09L1080.018,971.425Z" style="fill:url(#_Linear2);"/>
                <g transform="matrix(1,0,0,1,-2322.566311,-691.758619)">
                    <path d="M3110.54,1664.849L3109.155,1674.849L3039.598,1674.849L3039.206,1664.849L3110.54,1664.849ZM3197.932,1664.849L3197.682,1674.849L3147.095,1674.849L3147.446,1664.849L3197.932,1664.849ZM3526.088,1664.849L3526.496,1674.849L3425.323,1674.849L3425.117,1664.849L3526.088,1664.849ZM3617.462,1458.203L3618.079,1468.203L3584.74,1468.203L3584.192,1458.203L3617.462,1458.203ZM3595.506,1664.849L3596.053,1674.849L3545.466,1674.849L3545.02,1664.849L3595.506,1664.849ZM3536.246,1468.203L3502.906,1468.203L3502.529,1458.203L3535.799,1458.203L3536.246,1468.203ZM3267.349,1664.849L3267.239,1674.849L3216.652,1674.849L3216.864,1664.849L3267.349,1664.849ZM3401.462,1664.849C3400.717,1665.856 3399.848,1666.858 3398.837,1667.832C3397.735,1668.892 3391.546,1674.849 3381.059,1674.849L3311.502,1674.849C3301.015,1674.849 3294.768,1668.89 3293.658,1667.832C3292.637,1666.858 3291.759,1665.856 3291.004,1664.849C3286.327,1658.608 3286.374,1652.16 3286.383,1650.89L3286.456,1640.892C3286.445,1642.372 3286.386,1650.827 3293.73,1657.832C3294.84,1658.89 3301.088,1664.849 3311.575,1664.849L3380.891,1664.849C3391.379,1664.849 3397.568,1658.892 3398.669,1657.832C3405.947,1650.827 3405.808,1642.366 3405.783,1640.892L3405.951,1650.89C3405.972,1652.156 3406.08,1658.607 3401.462,1664.849ZM3221.372,1452.213L3221.16,1462.213L3202.998,1462.213L3203.248,1452.213L3221.372,1452.213ZM3218.674,1579.468L3199.617,1597.438L3199.873,1587.196L3218.89,1569.264L3218.674,1579.468ZM3645.955,1919.849L3646.568,1929.849C3613.278,1923.266 3585.331,1918.876 3579.987,1918.036C3578.801,1917.85 3572.64,1916.882 3567.146,1910.286C3566.333,1909.31 3561.67,1903.712 3561.274,1895.535L3560.793,1885.601C3561.188,1893.761 3565.872,1899.349 3566.683,1900.323C3572.167,1906.907 3578.317,1907.873 3579.5,1908.059C3584.834,1908.897 3612.728,1913.279 3645.955,1919.849ZM3637.034,1774.78L3637.658,1784.822C3620.393,1783.577 3605.89,1782.646 3603.127,1782.469L3602.556,1772.43L3637.034,1774.78ZM3600.819,1741.85L3587.977,1741.438L3587.429,1731.421L3600.25,1731.831L3600.819,1741.85ZM3606.443,1841.112C3591.157,1839.427 3578.317,1838.164 3575.87,1837.923C3574.721,1837.81 3568.643,1837.213 3563.23,1830.943C3562.42,1830.004 3557.838,1824.697 3557.442,1816.558L3556.965,1806.78C3557.362,1814.9 3561.933,1820.194 3562.742,1821.13C3568.145,1827.388 3574.21,1827.985 3575.358,1828.098C3577.799,1828.338 3590.639,1829.598 3605.889,1831.279L3606.443,1841.112ZM3548.455,1903.476L3548.916,1913.45C3531.162,1910.998 3516.251,1909.261 3513.407,1908.93L3513.01,1898.969C3515.849,1899.3 3530.735,1901.028 3548.455,1903.476ZM3499.72,1897.473L3500.091,1907.434C3482.337,1905.511 3467.426,1904.218 3464.583,1903.972L3464.277,1893.919C3467.115,1894.165 3481.999,1895.553 3499.72,1897.473ZM3510.357,1832.313C3504.237,1838.828 3498.795,1844.568 3497.786,1845.631L3497.428,1836.011L3509.975,1822.717L3510.357,1832.313ZM3446.431,1728.191L3446.709,1738.194L3412.462,1737.763L3412.259,1727.76L3446.431,1728.191ZM3448.935,1818.568L3449.212,1828.58C3431.743,1827.721 3417.069,1827.199 3414.273,1827.099L3414.07,1817.09L3448.935,1818.568ZM3450.992,1892.929L3451.267,1902.872C3415.76,1900.084 3385.938,1899.035 3380.251,1898.835L3380.125,1888.865C3385.802,1889.065 3415.552,1890.146 3450.992,1892.929ZM3369.595,1731.954L3369.702,1741.955L3346.133,1741.845L3346.08,1731.845L3369.595,1731.954ZM3346.91,1888.062L3346.963,1898.002C3329.21,1897.738 3314.297,1897.839 3311.456,1897.858L3311.481,1887.919C3314.316,1887.9 3329.191,1887.799 3346.91,1888.062ZM3311.851,1741.816L3288.283,1741.886L3288.362,1731.886L3311.877,1731.816L3311.851,1741.816ZM3229.551,1890.527L3229.348,1900.473C3211.595,1901.483 3196.68,1902.655 3193.842,1902.878L3194.119,1892.929C3196.952,1892.707 3211.832,1891.536 3229.551,1890.527ZM3245.511,1737.637L3232.668,1737.763L3232.872,1727.761L3245.686,1727.635L3245.511,1737.637ZM3181.4,1875.369L3181.097,1885.285C3180.862,1893.011 3176.293,1898.071 3175.501,1898.948C3170.129,1904.896 3163.919,1905.501 3162.775,1905.613C3138.366,1907.993 3117.855,1910.604 3113.956,1911.1C3112.928,1911.231 3106.573,1912.04 3101.662,1907.017C3100.882,1906.219 3096.734,1901.975 3097.11,1893.833L3097.571,1883.901C3097.196,1892.028 3101.337,1896.264 3102.115,1897.06C3107.017,1902.074 3113.359,1901.266 3114.385,1901.136C3118.277,1900.64 3138.75,1898.031 3163.113,1895.656C3164.254,1895.544 3170.453,1894.94 3175.814,1889.003C3176.604,1888.128 3181.164,1883.079 3181.4,1875.369ZM3034.633,1913.226L3034.072,1923.215C3016.32,1926.34 3001.403,1929.289 2998.568,1929.849L2999.185,1919.849C3002.014,1919.29 3016.915,1916.344 3034.633,1913.226ZM3083.376,1905.372L3082.89,1915.349C3065.138,1917.945 3050.221,1920.45 3047.385,1920.926L3047.927,1910.94C3050.757,1910.465 3065.658,1907.963 3083.376,1905.372ZM3051.789,1839.704C3050.664,1841.038 3044.736,1848.067 3037.822,1856.463L3038.425,1845.74L3052.369,1829.008L3051.789,1839.704ZM3543.083,1787.342L3543.527,1796.898C3543.715,1800.942 3541.683,1803.205 3541.304,1803.626L3531.34,1814.635L3531.343,1814.639L3521.446,1815.142L3540.86,1794.071C3541.239,1793.649 3543.27,1791.387 3543.083,1787.342ZM3278.267,1888.482L3278.169,1898.423C3260.416,1898.904 3245.502,1899.631 3242.663,1899.77L3242.837,1889.827C3245.671,1889.689 3260.548,1888.962 3278.267,1888.482Z" style="fill:url(#_Linear3);"/>
                </g>
                <g transform="matrix(1,0,0,1,-2322.566311,-691.758619)">
                    <path d="M3160.492,1421.3C3161.25,1420.294 3162.125,1419.292 3163.134,1418.318C3170.398,1411.3 3178.827,1411.3 3180.312,1411.3L3246.199,1411.3C3256.113,1411.3 3262.025,1417.279 3263.052,1418.318C3263.421,1418.691 3264.42,1419.7 3265.544,1421.3C3267.553,1424.159 3269.963,1428.902 3269.892,1435.259L3269.782,1445.259C3269.891,1435.345 3263.969,1429.357 3262.941,1428.318C3261.914,1427.279 3256.002,1421.3 3246.088,1421.3L3179.96,1421.3C3178.476,1421.3 3170.047,1421.3 3162.783,1428.318C3155.511,1435.343 3155.212,1443.767 3155.16,1445.257L3155.511,1435.259C3155.556,1433.98 3155.782,1427.55 3160.492,1421.3ZM3030.862,1421.3L3030.568,1411.3L3078.486,1411.3L3078.458,1421.3L3030.862,1421.3ZM3095.49,1421.3L3096.455,1411.3L3144.373,1411.3L3143.085,1421.3L3095.49,1421.3ZM3420.107,1421.3L3419.901,1411.3L3467.819,1411.3L3468.126,1421.3L3420.107,1421.3ZM3288.054,1421.3L3288.127,1411.3L3336.045,1411.3L3336.073,1421.3L3288.054,1421.3ZM3354.081,1421.3L3354.014,1411.3L3401.932,1411.3L3402.1,1421.3L3354.081,1421.3ZM3501.139,1421.3L3500.763,1411.3L3614.568,1411.3L3615.185,1421.3L3501.139,1421.3ZM3474.347,1623.936L3524.418,1623.936L3524.826,1633.936L3474.654,1633.936L3474.347,1623.936ZM3336.651,1623.936L3355.427,1623.936L3355.494,1633.936L3336.679,1633.936L3336.651,1623.936ZM3200.91,1545.728L3219.77,1527.759L3219.554,1537.965L3200.654,1555.972L3200.91,1545.728ZM3559.964,1868.502L3559.477,1858.446C3577.027,1860.32 3591.772,1862.128 3594.577,1862.472L3595.123,1872.534L3559.964,1868.502ZM3595.403,1877.706L3608.606,1879.522L3609.174,1889.6L3595.95,1887.781L3595.403,1877.706ZM3288.544,1708.849L3288.623,1698.849L3369.242,1698.849L3369.349,1708.849L3288.544,1708.849ZM3458.651,1708.849L3458.347,1698.849L3521.993,1698.849C3523.073,1698.849 3529.033,1698.849 3534.253,1704.511C3534.664,1704.957 3536.026,1706.435 3537.309,1708.849C3538.534,1711.155 3539.686,1714.314 3539.87,1718.247L3540.335,1728.247C3539.959,1720.197 3535.523,1715.384 3534.718,1714.511C3529.498,1708.849 3523.538,1708.849 3522.458,1708.849L3458.651,1708.849ZM3377.854,1708.849L3377.728,1698.849L3445.617,1698.849L3445.895,1708.849L3377.854,1708.849ZM3554.359,1708.849C3555.397,1706.492 3556.583,1705.044 3556.952,1704.593C3561.657,1698.849 3567.623,1698.849 3568.667,1698.849L3632.313,1698.849L3632.935,1708.849L3569.153,1708.849C3568.104,1708.849 3562.143,1708.852 3557.44,1714.593C3556.707,1715.488 3552.747,1720.322 3553.14,1728.398L3552.652,1718.405C3552.456,1714.391 3553.335,1711.177 3554.359,1708.849ZM3058.949,1708.849L3059.497,1698.849L3093.442,1698.849L3092.954,1708.849L3058.949,1708.849ZM3152.47,1708.849L3152.845,1698.849L3186.789,1698.849L3186.484,1708.849L3152.47,1708.849ZM3199.24,1708.849L3199.519,1698.849L3263.165,1698.849C3264.211,1698.849 3270.185,1698.849 3275.108,1704.165C3275.523,1704.614 3277.007,1706.217 3278.226,1708.849C3279.192,1710.936 3279.991,1713.669 3279.958,1716.988L3279.86,1726.988C3279.934,1719.484 3275.754,1714.97 3275.009,1714.165C3270.087,1708.849 3264.112,1708.849 3263.066,1708.849L3199.24,1708.849ZM3105.706,1708.849L3106.171,1698.849L3140.116,1698.849L3139.715,1708.849L3105.706,1708.849ZM3012.206,1708.849L3012.823,1698.849L3046.768,1698.849L3046.199,1708.849L3012.206,1708.849ZM3591.002,1796.772C3593.428,1796.948 3606.157,1797.872 3621.311,1799.097C3622.467,1799.19 3628.501,1799.678 3633.931,1806.224C3634.771,1807.236 3639.388,1812.802 3639.926,1821.53L3640.552,1831.735C3640.015,1823.024 3635.406,1817.468 3634.568,1816.458C3629.148,1809.925 3623.126,1809.438 3621.972,1809.345C3609.668,1808.351 3597.122,1807.471 3591.566,1807.083L3591.002,1796.772ZM3496.266,1804.942C3502.63,1797.89 3507.719,1792.192 3508.712,1791.08L3509.095,1800.654L3496.626,1814.542L3496.266,1804.942ZM3413.484,1788.146C3430.803,1788.572 3445.35,1789.066 3448.121,1789.16L3448.398,1799.168L3413.686,1798.152L3413.484,1788.146ZM3133.332,1868.2L3146.534,1867.013L3146.157,1877.047L3132.93,1878.236L3133.332,1868.2ZM3040.275,1813.029C3041.376,1811.723 3047.128,1804.895 3054.129,1796.774L3053.543,1807.461L3039.666,1823.744L3040.275,1813.029ZM3531.343,1814.639C3532.24,1815.647 3536.925,1820.914 3542.384,1827.149C3542.789,1827.61 3545.071,1830.212 3545.259,1834.264L3545.743,1844.749C3545.555,1840.696 3543.273,1838.095 3542.868,1837.633C3540.626,1835.072 3536.242,1830.472 3531.79,1825.868C3527.925,1821.87 3524.007,1817.869 3521.395,1815.198L3521.446,1815.142L3531.343,1814.639ZM3416.284,1861.544C3433.304,1862.33 3447.431,1863.217 3450.175,1863.39L3450.452,1873.405L3415.172,1871.494L3414.969,1861.483L3416.284,1861.544Z" style="fill:url(#_Linear4);"/>
                </g>
            </g>
        </g>
    </g>
    <defs>
        <linearGradient id="_Linear1" x1="0" y1="0" x2="1" y2="0" gradientUnits="userSpaceOnUse" gradientTransform="matrix(0,518.548718,-518.548718,0,499.998317,262.225641)"><stop offset="0" style="stop-color:rgb(255,191,0);stop-opacity:1"/><stop offset="1" style="stop-color:rgb(255,106,0);stop-opacity:1"/></linearGradient>
        <linearGradient id="_Linear2" x1="0" y1="0" x2="1" y2="0" gradientUnits="userSpaceOnUse" gradientTransform="matrix(0,518.548718,-518.548718,0,989.071867,719.541617)"><stop offset="0" style="stop-color:rgb(255,203,13);stop-opacity:1"/><stop offset="1" style="stop-color:rgb(255,134,13);stop-opacity:1"/></linearGradient>
        <linearGradient id="_Linear3" x1="0" y1="0" x2="1" y2="0" gradientUnits="userSpaceOnUse" gradientTransform="matrix(0,518.548718,-518.548718,0,3312.06379,1411.300236)"><stop offset="0" style="stop-color:rgb(255,170,0);stop-opacity:1"/><stop offset="1" style="stop-color:rgb(250,83,0);stop-opacity:1"/></linearGradient>
        <linearGradient id="_Linear4" x1="0" y1="0" x2="1" y2="0" gradientUnits="userSpaceOnUse" gradientTransform="matrix(0,518.548718,-518.548718,0,3311.456168,1411.300236)"><stop offset="0" style="stop-color:rgb(255,217,26);stop-opacity:1"/><stop offset="1" style="stop-color:rgb(255,149,0);stop-opacity:1"/></linearGradient>
    </defs>
</svg>
